<?xml version="1.0" encoding="UTF-8"?>
<svg xmlns="http://www.w3.org/2000/svg" version="1.1" viewBox="0 0 64.8 40">
  <defs>
    <style>
      .cls-1 {
        fill: #fff;
      }

      .cls-2 {
        fill: #002276;
      }

      .cls-3 {
        fill: #e6b763;
      }

      .cls-4 {
        fill: #008d00;
        fill-rule: evenodd;
      }
    </style>
  </defs>
  <!-- Generator: Adobe Illustrator 28.7.10, SVG Export Plug-In . SVG Version: 1.2.0 Build 236)  -->
  <g>
    <g id="Layer_1">
      <rect class="cls-1" x="1.4" y="2.1" width="62" height="37.9" rx="9.3" ry="9.3"/>
      <path class="cls-2" d="M17.7,28.2c-1.8,0-2.7-1.1-2-3.2,1-2.9,3.6-4.6,5.8-4.6s3.4,1.5,3.4,1.5l3.2-6.7c.4-.9-.2-1.9-1.2-1.9h-2.5c-6.9,0-14.5,4.7-17.4,13-1.9,5.5,2.1,9.3,6.2,9.3s5.8-1.4,6.5-2.8l2.9-6.1c-1.4.7-3.3,1.5-4.9,1.5h0Z"/>
      <path class="cls-2" d="M38.9,13.3c2.9.2,5.9,1.3,4.7,5-1.1,3.3-3.6,4.8-5.9,5.6,2.1.6,3,2.4,2.2,4.5-.8,2.5-2.3,4.2-4.2,5.3-1.9,1.1-4,1.7-6,1.9h6.5c1.1,0,2.1-.5,2.7-1.4l1.2-1.7h4.9l-.6,2.5c0,.3.1.6.5.6h5.2c1.6,0,3-1.2,3.3-2.8l3.3-17.9c.1-.8-.5-1.6-1.3-1.6h-16.5ZM46.6,27.2h-2.9l4.6-6.2-1.7,6.2Z"/>
      <path class="cls-2" d="M31.2,27h-2.4l-1.3,2.8h2.6c.8,0,1.3-.3,1.7-.8.2-.3.4-.6.5-.8.3-.8-.2-1.2-1-1.2Z"/>
      <path class="cls-2" d="M34.5,19.2h-2.1l-1.2,2.5h1.9c.7,0,1.2-.2,1.5-.6.3-.3.5-.7.6-1,.2-.5,0-1-.7-1h0Z"/>
      <polygon class="cls-4" points="37.7 3.6 38.2 5.1 39.8 5.1 38.5 6.1 39 7.7 37.7 6.7 36.4 7.7 36.9 6.1 35.6 5.1 37.2 5.1 37.7 3.6"/>
      <g>
        <path class="cls-3" d="M29.5,12.2h25.8c1.5,0,2.7,1.4,2.4,2.9-1,5.4-3,16.7-3.4,18.6.4-1.5,3.7-11.9,5.4-17.7,0,0,0,0,0,0,.9-3.1-1.6-6.2-4.9-5.9l-25.3,2.1"/>
        <path class="cls-3" d="M5.2,34.1c-3.7-4.9,2.3-12.3,4.6-14.5-1.5,1.8-2.9,4-3.7,6.3-1,2.7-.7,5.4.8,7.4,1.4,2,3.9,3.1,6.5,3,0,0-5.7,1-8.2-2.2Z"/>
      </g>
    </g>
  </g>
</svg>